<?xml version="1.0" encoding="iso-8859-1"?>
<!-- Uploaded to: SVG Repo, www.svgrepo.com, Generator: SVG Repo Mixer Tools -->
<svg fill="#000000" height="800px" width="800px" version="1.1" id="Layer_1" xmlns="http://www.w3.org/2000/svg" xmlns:xlink="http://www.w3.org/1999/xlink" 
	 viewBox="0 0 512 512" xml:space="preserve">
<g>
	<g>
		<path d="M290.342,330.686V74.927C290.342,33.612,256.729,0,215.415,0c-41.315,0-74.927,33.612-74.927,74.927v255.759
			c-19.942,19.859-31.219,46.784-31.219,75.168c0,58.529,47.617,106.146,106.146,106.146c58.529,0,106.146-47.617,106.146-106.146
			C321.561,377.47,310.283,350.545,290.342,330.686z M215.415,443.317c-20.69,0-37.463-16.774-37.463-37.463
			c0-13.865,7.536-25.961,18.732-32.44V168.585h37.463v204.829c11.195,6.479,18.732,18.574,18.732,32.44
			C252.878,426.543,236.104,443.317,215.415,443.317z"/>
	</g>
</g>
<g>
	<g>
		<polygon points="377.756,106.146 377.756,81.171 340.293,81.171 340.293,106.146 315.317,106.146 315.317,143.61 340.293,143.61 
			340.293,168.585 377.756,168.585 377.756,143.61 402.732,143.61 402.732,106.146 		"/>
	</g>
</g>
</svg>